<svg xmlns="http://www.w3.org/2000/svg" xmlns:xlink="http://www.w3.org/1999/xlink" fill="none" version="1.1" width="500" height="500" viewBox="0 0 500 500"><defs><linearGradient x1="0.31668299436569214" y1="0" x2="0.6483903527259827" y2="1" id="master_svg0_19_257"><stop offset="0%" stop-color="#F4C419" stop-opacity="1"/><stop offset="100%" stop-color="#F1BC15" stop-opacity="1"/></linearGradient><clipPath id="master_svg1_19_0709"><rect x="0" y="0" width="500" height="500" rx="250"/></clipPath><clipPath id="master_svg2_19_286"><rect x="109" y="109" width="282" height="282" rx="0"/></clipPath></defs><g clip-path="url(#master_svg1_19_0709)"><rect x="0" y="0" width="500" height="500" rx="250" fill="url(#master_svg0_19_257)" fill-opacity="1"/><g style="opacity:0.699999988079071;" clip-path="url(#master_svg2_19_286)"><g><path d="M332.249267578125,144.25C350.915267578125,144.24895157,366.345267578125,158.7986,367.44026757812503,177.43200000000002L367.499267578125,179.5L367.499267578125,227.064C367.492267578125,233.2809,362.644267578125,238.41649999999998,356.43826757812496,238.7808C350.23126757812497,239.1451,344.81526757812503,234.6121,344.081267578125,228.43880000000001L343.999267578125,227.064L343.999267578125,179.5C343.998267578125,173.543,339.540267578125,168.5292,333.624267578125,167.8323L332.249267578125,167.75L155.999267578125,167.75C150.042267578125,167.7508,145.028467578125,172.2092,144.331567578125,178.1253L144.249267578125,179.5L144.249267578125,320.5C144.250067578125,326.457,148.708467578125,331.471,154.624567578125,332.168L155.999267578125,332.25L186.925267578125,332.25C193.139867578125,332.26300000000003,198.269667578125,337.113,198.63076757812502,343.317C198.99186757812498,349.52099999999996,194.459467578125,354.93399999999997,188.288267578125,355.668L186.925267578125,355.75L155.999267578125,355.75C137.333667578125,355.751,121.903067578125,341.201,120.808018578125,322.568L120.749267578125,320.5L120.749267578125,179.5C120.748230698125,160.8344,135.297867578125,145.40378,153.93126757812502,144.30875L155.999267578125,144.25L332.249267578125,144.25ZM227.369267578125,272.807C227.537267578125,269.933,228.75826757812501,267.222,230.800267578125,265.193L255.710267578125,240.27100000000002L256.744267578125,239.3545C261.626267578125,235.487,268.679267578125,236.1021,272.819267578125,240.75650000000002C276.958267578125,245.411,276.747267578125,252.487,272.336267578125,256.88599999999997L267.45926757812504,261.75L319.95926757812504,261.75C345.458267578125,261.75,366.307267578125,282.08299999999997,366.945267578125,307.575C367.58226757812497,333.067,347.777267578125,354.41700000000003,322.30826757812497,355.69100000000003L319.95926757812504,355.75L238.249267578125,355.75C232.03226757812502,355.743,226.897267578125,350.895,226.53226757812502,344.68899999999996C226.16826757812498,338.48199999999997,230.701267578125,333.067,236.874267578125,332.332L238.249267578125,332.25L319.95926757812504,332.25C332.63526757812497,332.307,343.071267578125,322.299,343.547267578125,309.632C344.023267578125,296.96500000000003,334.36626757812496,286.203,321.721267578125,285.30899999999997L319.95926757812504,285.25L266.696267578125,285.25L272.336267578125,290.89C276.747267578125,295.288,276.95926757812504,302.365,272.819267578125,307.019C268.679267578125,311.674,261.626267578125,312.289,256.744267578125,308.421L255.721267578125,307.505L230.800267578125,282.595C228.756267578125,280.562,227.534267578125,277.846,227.369267578125,274.969L227.369267578125,272.807Z" fill="#2B1A03" fill-opacity="1" style="mix-blend-mode:passthrough"/></g></g></g></svg>