<svg width="512" height="512" viewBox="0 0 512 512" fill="none" xmlns="http://www.w3.org/2000/svg" xmlns:xlink="http://www.w3.org/1999/xlink" class=""><rect id="r9" width="512" height="512" x="0" y="0" rx="999" fill="url(#ra)" stroke="#FFFFFF" stroke-width="0" stroke-opacity="100%" paint-order="stroke"></rect><clipPath id="clip"><use xlink:href="#r9"></use></clipPath><defs><radialGradient id="ra" cx="50%" cy="50%" r="100%" fx="50%" fy="0%" gradientUnits="objectBoundingBox"><stop stop-color="#ffbb00"></stop><stop offset="1" stop-color="#ffe74b"></stop></radialGradient><radialGradient id="rb" cx="0" cy="0" r="1" gradientUnits="userSpaceOnUse" gradientTransform="translate(256) rotate(90) scale(512)"><stop stop-color="white"></stop><stop offset="1" stop-color="white" stop-opacity="0"></stop></radialGradient></defs><svg xmlns="http://www.w3.org/2000/svg" fill="none" viewBox="0 0 16 16" width="352" height="352" x="80" y="80" alignment-baseline="middle" style="color: rgb(42, 26, 0);"><path stroke="currentColor" stroke-linecap="round" stroke-linejoin="round" stroke-width="1.5" d="M3.25 5.25v5.5m7.5-7.5h-5.5m7.5 2v5.5m-2 2h-5.5m6.5-2h1.5a1 1 0 0 1 1 1v1.5a1 1 0 0 1-1 1h-1.5a1 1 0 0 1-1-1v-1.5a1 1 0 0 1 1-1Zm-9 0h1.5a1 1 0 0 1 1 1v1.5a1 1 0 0 1-1 1h-1.5a1 1 0 0 1-1-1v-1.5a1 1 0 0 1 1-1Zm0-9h1.5a1 1 0 0 1 1 1v1.5a1 1 0 0 1-1 1h-1.5a1 1 0 0 1-1-1v-1.5a1 1 0 0 1 1-1Zm9 0h1.5a1 1 0 0 1 1 1v1.5a1 1 0 0 1-1 1h-1.5a1 1 0 0 1-1-1v-1.5a1 1 0 0 1 1-1Z"></path></svg></svg>