<svg xmlns="http://www.w3.org/2000/svg" xmlns:xlink="http://www.w3.org/1999/xlink" fill="none" version="1.1" width="500" height="500" viewBox="0 0 500 500"><defs><linearGradient x1="0.31668299436569214" y1="0" x2="0.6483903527259827" y2="1" id="master_svg0_19_257"><stop offset="0%" stop-color="#F4C419" stop-opacity="1"/><stop offset="100%" stop-color="#F1BC15" stop-opacity="1"/></linearGradient><clipPath id="master_svg1_19_0697"><rect x="0" y="0" width="500" height="500" rx="250"/></clipPath><clipPath id="master_svg2_19_269"><rect x="94" y="85" width="330" height="330" rx="0"/></clipPath></defs><g clip-path="url(#master_svg1_19_0697)"><rect x="0" y="0" width="500" height="500" rx="250" fill="url(#master_svg0_19_257)" fill-opacity="1"/><g style="opacity:0.699999988079071;" clip-path="url(#master_svg2_19_269)"><g><path d="M148.9996337890625,247.607248046875L148.9996337890625,183.051148046875C148.9996337890625,174.374848046875,156.0396337890625,167.334848046875,164.7159337890625,167.334848046875L205.4159337890625,167.334848046875L205.4159337890625,166.537348046875C205.4159337890625,144.275848046875,223.46243378906252,126.229248046875,245.7240337890625,126.229248046875C267.9856337890625,126.229248046875,286.0326337890625,144.275848046875,286.0326337890625,166.537348046875L286.0326337890625,167.321148046875L326.73163378906247,167.321148046875C335.4086337890625,167.321148046875,342.4486337890625,174.361148046875,342.4486337890625,183.037348046875L342.4486337890625,223.517348046875L342.61363378906253,223.517348046875C365.1916337890625,222.926348046875,383.81363378906246,241.068248046875,383.81363378906246,263.653248046875C383.81363378906246,286.239248046875,365.1916337890625,304.381248046875,342.61363378906253,303.79024804687504L342.4486337890625,303.79024804687504L342.4486337890625,344.270248046875C342.4486337890625,352.946248046875,335.4086337890625,359.986248046875,326.73163378906247,359.986248046875L261.83263378906247,359.986248046875L261.83263378906247,333.613248046875C261.83263378906247,324.71324804687504,254.6176337890625,317.498248046875,245.7171337890625,317.498248046875C236.81703378906252,317.498248046875,229.60213378906252,324.71324804687504,229.60213378906252,333.613248046875L229.60213378906252,360.00024804687496L164.7021337890625,360.00024804687496C156.0276637890625,359.99224804687503,148.9996387064425,352.95824804687504,148.9996337890625,344.283248046875L148.9996337890625,279.727248046875L173.2408337890625,279.727248046875C182.11053378906252,279.727248046875,189.3008337890625,272.537248046875,189.3008337890625,263.667248046875C189.3008337890625,254.797248046875,182.11053378906252,247.607248046875,173.2408337890625,247.607248046875L148.9996337890625,247.607248046875ZM166.8746337890625,229.732248046875L173.2408337890625,229.732248046875C191.9826337890625,229.732248046875,207.1758337890625,244.925248046875,207.1758337890625,263.667248046875C207.1758337890625,282.409248046875,191.9826337890625,297.602248046875,173.2408337890625,297.602248046875L166.8746337890625,297.602248046875L166.8746337890625,342.12524804687496L211.7271337890625,342.12524804687496L211.7271337890625,333.627248046875C211.73633378906248,314.858248046875,226.9545337890625,299.647248046875,245.7240337890625,299.647248046875C264.4936337890625,299.647248046875,279.7116337890625,314.858248046875,279.7206337890625,333.627248046875L279.7206337890625,342.12524804687496L324.5736337890625,342.12524804687496L324.5736337890625,285.928248046875L342.61363378906253,285.928248046875C355.21463378906253,286.371248046875,365.6706337890625,276.276248046875,365.6706337890625,263.667248046875C365.6706337890625,251.058248046875,355.21463378906253,240.96324804687498,342.61363378906253,241.40624804687502L324.5736337890625,241.40624804687502L324.5736337890625,185.209848046875L268.1576337890625,185.209848046875L268.1576337890625,166.537348046875C268.1576337890625,154.147948046875,258.11363378906253,144.104248046875,245.7240337890625,144.104248046875C233.3345337890625,144.104248046875,223.2909337890625,154.147948046875,223.2909337890625,166.537348046875L223.2909337890625,185.196148046875L166.8746337890625,185.196148046875L166.8746337890625,229.718248046875L166.8746337890625,229.732248046875Z" fill="#2B1A03" fill-opacity="1" style="mix-blend-mode:passthrough"/></g></g></g></svg>