<svg xmlns="http://www.w3.org/2000/svg" xmlns:xlink="http://www.w3.org/1999/xlink" fill="none" version="1.1" width="500" height="500" viewBox="0 0 500 500"><defs><linearGradient x1="0.31668299436569214" y1="0" x2="0.6483903527259827" y2="1" id="master_svg0_19_257"><stop offset="0%" stop-color="#F4C419" stop-opacity="1"/><stop offset="100%" stop-color="#F1BC15" stop-opacity="1"/></linearGradient><clipPath id="master_svg1_20_32"><rect x="0" y="0" width="500" height="500" rx="250"/></clipPath><clipPath id="master_svg2_20_56"><rect x="79" y="79" width="342" height="342" rx="0"/></clipPath></defs><g clip-path="url(#master_svg1_20_32)"><rect x="0" y="0" width="500" height="500" rx="250" fill="url(#master_svg0_19_257)" fill-opacity="1"/><g style="opacity:0.699999988079071;" clip-path="url(#master_svg2_20_56)"><g><path d="M353.77153515625,346.7982236328125C335.10553515624997,346.8022236328125,314.33853515625003,334.41422363281254,297.00053515625,311.6032236328125C286.47753515625004,297.76322363281247,271.18353515625,289.82122363281246,255.03553515625,289.82122363281246L244.96253515625,289.82122363281246C228.81453515625,289.82122363281246,213.51853515624998,297.7592236328125,202.99753515625,311.6032236328125C178.15603515625,344.2902236328125,146.25713515625,355.5652236328125,123.61973515625,339.6752236328125C95.74871515625,320.10022363281246,92.50572515625,265.59722363281253,116.24203515625,215.5962236328125C131.41493515625,183.6305236328125,154.28953515625,160.90627363281249,177.43463515625,154.8077236328125C190.14273515625,151.4611936328125,202.10253515624998,153.3749306328125,212.02553515625,160.3418436328125C222.64653515625,167.8798236328125,233.16953515625,171.6405236328125,243.47353515625,171.6405236328125L256.52553515625,171.6405236328125C266.83253515625,171.6405236328125,277.35253515625004,167.8798236328125,287.79653515625,160.4620836328125C297.89253515625,153.3715926328125,309.85653515625,151.4612036328125,322.56453515625003,154.8077236328125C345.70953515625,160.9096236328125,368.58053515625,183.6306236328125,383.75353515625,215.5962236328125L383.75353515625,215.5962236328125C407.49353515625,265.59722363281253,404.25353515625,320.10022363281246,376.37553515625,339.6712236328125C369.53553515625,344.4772236328125,361.84753515625,346.7982236328125,353.77153515625,346.7982236328125ZM244.96253515625,272.2202236328125L255.03553515625,272.2202236328125C276.73153515625,272.2202236328125,297.13453515624997,282.69322363281253,311.01153515625003,300.9522236328125C329.71853515625,325.5672236328125,351.91853515624996,335.3332236328125,366.25953515625,325.2662236328125C386.61553515625,310.97222363281253,387.34753515625,264.2012236328125,367.85253515625,223.1376236328125L367.85253515625,223.1376236328125C355.07053515625,196.2051236328125,335.99753515625,176.5434236328125,318.07553515625,171.8176236328125C310.44353515625,169.8003236328125,303.71453515625,170.7822236328125,298.08653515624997,174.7366236328125C284.50353515625,184.3787236328125,270.55653515625,189.2348236328125,256.52553515625,189.2348236328125L243.47353515625,189.2348236328125C229.44553515625,189.2348236328125,215.49253515625,184.3787236328125,202.00953515625,174.8067236328125C196.28473515625,170.7855236328125,189.55823515625002,169.8103236328125,181.92003515624998,171.8209236328125C163.99843515625,176.5434236328125,144.92463515625,196.2051236328125,132.13963515625,223.1376236328125C112.64833515625,264.2042236328125,113.37973515625,310.97222363281253,133.73273515625,325.2662236328125C148.08073515625,335.3392236328125,170.27733515625,325.5642236328125,188.98383515625,300.9522236328125C202.86453515624999,282.69322363281253,223.26753515625,272.2202236328125,244.96253515625,272.2202236328125Z" fill="#2B1A03" fill-opacity="1" style="mix-blend-mode:passthrough"/></g><g><path d="M340.612953125,268.5093013671875C328.482953125,268.5093013671875,318.612953125,258.6400013671875,318.612953125,246.50970136718752C318.612953125,234.37940136718748,328.482953125,224.5102013671875,340.612953125,224.5102013671875C352.742953125,224.5102013671875,362.611953125,234.37940136718748,362.611953125,246.50970136718752C362.611953125,258.6400013671875,352.742953125,268.5093013671875,340.612953125,268.5093013671875ZM340.612953125,242.1111013671875C338.18795312500004,242.1111013671875,336.213953125,244.0850013671875,336.213953125,246.50970136718752C336.213953125,248.9345013671875,338.18795312500004,250.9083013671875,340.612953125,250.9083013671875C343.040953125,250.9083013671875,345.01495312500003,248.9344013671875,345.01495312500003,246.50970136718752C345.01495312500003,244.0850013671875,343.040953125,242.1111013671875,340.612953125,242.1111013671875ZM297.327953125,253.69710136718749C285.197953125,253.69710136718749,275.328853125,243.8278013671875,275.328853125,231.6975013671875C275.328853125,219.5672013671875,285.197953125,209.6980013671875,297.327953125,209.6980013671875C309.458953125,209.6980013671875,319.327953125,219.5672013671875,319.327953125,231.6975013671875C319.327953125,243.8278013671875,309.454953125,253.69710136718749,297.327953125,253.69710136718749ZM297.327953125,227.2989013671875C294.903953125,227.2989013671875,292.929953125,229.2728013671875,292.929953125,231.6975013671875C292.929953125,234.1222013671875,294.903953125,236.0961013671875,297.327953125,236.0961013671875C299.752953125,236.0961013671875,301.726953125,234.1222013671875,301.726953125,231.6975013671875C301.726953125,229.2728013671875,299.752953125,227.2989013671875,297.327953125,227.2989013671875ZM185.677443125,266.8961013671875C180.817973125,266.8961013671875,176.876953125,262.95510136718747,176.876953125,258.09570136718753L176.876953125,205.2993913671875C176.876953125,200.4399213671875,180.817963125,196.4989013671875,185.677443125,196.4989013671875C190.536953125,196.4989013671875,194.477953125,200.4399113671875,194.477953125,205.2993913671875L194.477953125,258.0956013671875C194.477953125,262.9584013671875,190.536953125,266.8961013671875,185.677443125,266.8961013671875Z" fill="#2B1A03" fill-opacity="1" style="mix-blend-mode:passthrough"/></g><g><path d="M212.075948046875,240.49797265625L159.279738046875,240.49797265625C154.420268046875,240.49797265625,150.479248046875,236.55697265625,150.479248046875,231.69746265625C150.479248046875,226.83798265625,154.420268046875,222.89697265625,159.279738046875,222.89697265625L212.075948046875,222.89697265625C216.935448046875,222.89697265625,220.876448046875,226.83798265625,220.876448046875,231.69746265625C220.876448046875,236.55697265625,216.935448046875,240.49797265625,212.075948046875,240.49797265625Z" fill="#2B1A03" fill-opacity="1" style="mix-blend-mode:passthrough"/></g></g></g></svg>