<svg xmlns="http://www.w3.org/2000/svg" xmlns:xlink="http://www.w3.org/1999/xlink" fill="none" version="1.1" width="50" height="50" viewBox="0 0 50 50"><defs><clipPath id="master_svg0_15_016"><rect x="0" y="0" width="50" height="50" rx="0"/></clipPath><linearGradient x1="0.5" y1="0" x2="0.5" y2="1" id="master_svg1_15_0219"><stop offset="0%" stop-color="#F4C419" stop-opacity="1"/><stop offset="100%" stop-color="#F1BC15" stop-opacity="1"/></linearGradient></defs><g clip-path="url(#master_svg0_15_016)"><g><path d="M28,43Q28,43.14738,27.98555,43.29405Q27.97111,43.44072,27.94235,43.58527Q27.9136,43.729820000000004,27.870820000000002,43.87085Q27.82804,44.01189,27.771639999999998,44.14805Q27.71524,44.28421,27.64576,44.41419Q27.57629,44.54417,27.494410000000002,44.66671Q27.41253,44.78925,27.319029999999998,44.90318Q27.22553,45.01711,27.12132,45.12132Q27.01711,45.22553,26.90318,45.31903Q26.78925,45.412530000000004,26.666710000000002,45.49441Q26.54417,45.57629,26.414189999999998,45.64576Q26.28421,45.71524,26.148049999999998,45.77164Q26.01189,45.82804,25.87085,45.87082Q25.72982,45.9136,25.58527,45.94236Q25.44072,45.97111,25.29405,45.98555Q25.14738,46,25,46Q24.85262,46,24.70595,45.98555Q24.55928,45.97111,24.41473,45.94235Q24.27018,45.9136,24.12915,45.87082Q23.98811,45.82804,23.85195,45.77164Q23.71579,45.71524,23.58581,45.64576Q23.45583,45.57629,23.33329,45.49441Q23.21075,45.412530000000004,23.09682,45.31903Q22.982893,45.22553,22.87868,45.12132Q22.774466,45.01711,22.680969,44.90318Q22.587471,44.78925,22.505591,44.66671Q22.423711,44.54417,22.354236,44.41419Q22.284761,44.28421,22.228361,44.14805Q22.171961,44.01189,22.129179,43.87085Q22.0863967,43.729820000000004,22.0576442,43.58527Q22.0288916,43.44072,22.0144458,43.29405Q22,43.14738,22,43Q22,42.85262,22.0144458,42.70595Q22.0288916,42.55928,22.0576442,42.41473Q22.0863967,42.270179999999996,22.129179,42.12915Q22.171961,41.98811,22.228361,41.85195Q22.284761,41.71579,22.354236,41.58581Q22.423711,41.45583,22.505591,41.33329Q22.587471,41.21075,22.680969,41.09682Q22.774466,40.982893,22.87868,40.87868Q22.982893,40.774466,23.09682,40.680969Q23.21075,40.587471,23.33329,40.505591Q23.45583,40.423711,23.58581,40.354236Q23.71579,40.284761,23.85195,40.228361Q23.98811,40.171961,24.12915,40.129179Q24.27018,40.0863967,24.41473,40.0576442Q24.55928,40.0288916,24.70595,40.0144458Q24.85262,40,25,40Q25.14738,40,25.29405,40.0144458Q25.44072,40.0288916,25.58527,40.0576442Q25.72982,40.0863967,25.87085,40.129179Q26.01189,40.171961,26.148049999999998,40.228361Q26.28421,40.284761,26.414189999999998,40.354236Q26.54417,40.423711,26.666710000000002,40.505591Q26.78925,40.587471,26.90318,40.680969Q27.01711,40.774466,27.12132,40.87868Q27.22553,40.982893,27.319029999999998,41.09682Q27.41253,41.21075,27.494410000000002,41.33329Q27.57629,41.45583,27.64576,41.58581Q27.71524,41.71579,27.771639999999998,41.85195Q27.82804,41.98811,27.870820000000002,42.12915Q27.9136,42.270179999999996,27.94236,42.41473Q27.97111,42.55928,27.98555,42.70595Q28,42.85262,28,43Z" fill="url(#master_svg1_15_0219)" fill-opacity="1"/></g><g><path d="M25,38C23.8016,38,22.8333,37.0798,22.8333,35.9407C22.8333,33.4696,23.5104,31.3009,24.8917,29.306C26.0562,27.6328,27.539099999999998,26.3329,28.9677,25.0716C31.5948,22.7677,33.6667,20.9466,33.6667,17.3557C33.6667,12.8124,29.7802,9.11857,25,9.11857C20.21979,9.11857,16.33333,12.8124,16.33333,17.3557C16.33333,18.4947,15.3651,19.415,14.16667,19.415C12.968228,19.415,12,18.4947,12,17.3557C12,10.540759999999999,17.82969,5,25,5C32.1703,5,38,10.540759999999999,38,17.3557C38,22.7549,34.7635,25.5928,31.913,28.1026C30.613,29.2416,29.3875,30.3163,28.5141,31.5776C27.6,32.8968,27.1734,34.2804,27.1734,35.9407C27.1667,37.0733,26.1984,38,25,38Z" fill="#76808F" fill-opacity="1"/></g></g></svg>