<svg width="512" height="512" viewBox="0 0 512 512" fill="none" xmlns="http://www.w3.org/2000/svg" xmlns:xlink="http://www.w3.org/1999/xlink" class=""><rect id="r9" width="512" height="512" x="0" y="0" rx="999" fill="url(#ra)" stroke="#FFFFFF" stroke-width="0" stroke-opacity="100%" paint-order="stroke"></rect><clipPath id="clip"><use xlink:href="#r9"></use></clipPath><defs><radialGradient id="ra" cx="50%" cy="50%" r="100%" fx="50%" fy="0%" gradientUnits="objectBoundingBox"><stop stop-color="#ffbb00"></stop><stop offset="1" stop-color="#ffe74b"></stop></radialGradient><radialGradient id="rb" cx="0" cy="0" r="1" gradientUnits="userSpaceOnUse" gradientTransform="translate(256) rotate(90) scale(512)"><stop stop-color="white"></stop><stop offset="1" stop-color="white" stop-opacity="0"></stop></radialGradient></defs><svg xmlns="http://www.w3.org/2000/svg" xmlns:xlink="http://www.w3.org/1999/xlink" fill="none" version="1.1" width="250" height="250" viewBox="0 0 240 240" x="131" y="131" alignment-baseline="middle" style="color: rgb(119, 113, 109);"><g><g><rect x="0" y="0" width="500" height="500" rx="0" fill="#0C0D13" fill-opacity="0"></rect></g><g><path d="M0 122C0 120.8954305003384 0.8954305003384133 120 2 120L120 120C120 120 120 120 120 120L120 238C120 239.10456949966158 119.1045694996616 240 118 240L2 240C0.8954305003384133 240 0 239.10456949966158 0 238Z" fill="#2A1A00" fill-opacity="1"></path></g><g><path d="M120,120L238,120C239.10500000000002,120,240,119.105,240,118L240,2C240,0.895431,239.10500000000002,0,238,0L122,0C120.895431,0,120,0.895431,120,2L120,60L120,120Z" fill="#2A1A00" fill-opacity="1"></path></g><g><rect x="144" y="144" width="96" height="96" rx="2" fill="#2A1A00" fill-opacity="1"></rect></g><g><rect x="0" y="0" width="88" height="88" rx="2" fill="#2A1A00" fill-opacity="1"></rect></g></g></svg></svg>