<svg xmlns="http://www.w3.org/2000/svg" xmlns:xlink="http://www.w3.org/1999/xlink" fill="none" version="1.1" width="500" height="500" viewBox="0 0 500 500"><defs><linearGradient x1="0.31668299436569214" y1="0" x2="0.6483903527259827" y2="1" id="master_svg0_19_257"><stop offset="0%" stop-color="#F4C419" stop-opacity="1"/><stop offset="100%" stop-color="#F1BC15" stop-opacity="1"/></linearGradient><clipPath id="master_svg1_19_0722"><rect x="0" y="0" width="500" height="500" rx="250"/></clipPath></defs><g clip-path="url(#master_svg1_19_0722)"><rect x="0" y="0" width="500" height="500" rx="250" fill="url(#master_svg0_19_257)" fill-opacity="1"/><g style="opacity:0.699999988079071;"><g><path d="M130 252C130 250.89543050033842 130.89543050033842 250 132 250L250 250C250 250 250 250 250 250L250 368C250 369.1045694996616 249.10456949966158 370 248 370L132 370C130.89543050033842 370 130 369.1045694996616 130 368Z" fill="#2B1A03" fill-opacity="1"/></g><g><path d="M250,250L368,250C369.105,250,370,249.10500000000002,370,248L370,132C370,130.895431,369.105,130,368,130L252,130C250.895431,130,250,130.895431,250,132L250,190L250,250Z" fill="#2B1A03" fill-opacity="1"/></g><g><rect x="274" y="274" width="96" height="96" rx="2" fill="#2B1A03" fill-opacity="1"/></g><g><rect x="130" y="130" width="88" height="88" rx="2" fill="#2B1A03" fill-opacity="1"/></g></g></g></svg>