<svg xmlns="http://www.w3.org/2000/svg" xmlns:xlink="http://www.w3.org/1999/xlink" fill="none" version="1.1" width="500" height="500" viewBox="0 0 500 500"><defs><linearGradient x1="0.31668299436569214" y1="0" x2="0.6483903527259827" y2="1" id="master_svg0_19_257"><stop offset="0%" stop-color="#F4C419" stop-opacity="1"/><stop offset="100%" stop-color="#F1BC15" stop-opacity="1"/></linearGradient><clipPath id="master_svg1_19_63"><rect x="0" y="0" width="500" height="500" rx="250"/></clipPath><clipPath id="master_svg2_19_290"><rect x="120" y="120" width="260" height="260" rx="0"/></clipPath></defs><g clip-path="url(#master_svg1_19_63)"><rect x="0" y="0" width="500" height="500" rx="250" fill="url(#master_svg0_19_257)" fill-opacity="1"/><g style="opacity:0.699999988079071;" clip-path="url(#master_svg2_19_290)"><g><path d="M149.7080310583,189.26877373046875C149.7080310583,219.89927373046874,200.72900781250002,235.92247373046877,251.11600781250002,235.92247373046877C301.50300781249996,235.92247373046877,352.52400781250003,219.89947373046874,352.52400781250003,189.26877373046875C352.52400781250003,128.02787373046874,149.7077753545,128.02787373046874,149.7080310583,189.26877373046875ZM251.11600781250002,215.64097373046874C202.3532078125,215.64097373046874,169.9900078125,199.76597373046874,169.9900078125,189.26897373046876C169.9900078125,178.77147373046876,202.3534078125,162.90667373046875,251.11600781250002,162.90667373046875C299.8790078125,162.90667373046875,332.24300781249997,178.77147373046876,332.24300781249997,189.26897373046876C332.24300781249997,199.76647373046876,299.8790078125,215.64097373046874,251.11600781250002,215.64097373046874Z" fill="#2B1A03" fill-opacity="1" style="mix-blend-mode:passthrough"/></g><g><path d="M251.11649609375002,297.1143435546875C200.72919609375,297.1143435546875,149.70849609375,281.0913435546875,149.70849609375,250.4708435546875C149.70849609375,247.2916435546875,150.32269509375,244.1030435546875,151.53078609375,241.0133035546875C153.57091609375,235.8041635546875,159.41380609375,233.2194025546875,164.68209609375,235.2595335546875C169.89129609375,237.3090635546875,172.46589609375,243.19181355468749,170.42569609375,248.4012435546875C170.12869609375,249.1339435546875,169.98949609375,249.8271435546875,169.98949609375,250.4713435546875C169.98949609375,260.9688435546875,202.35289609375,276.8336435546875,251.11549609374998,276.8336435546875C299.87849609374996,276.8336435546875,332.24249609375,260.9688435546875,332.24249609375,250.4713435546875C332.24249609375,249.7189435546875,332.06449609375,248.9560435546875,331.70749609375,248.1635435546875C329.42949609375,243.0437935546875,331.72749609375,237.0523735546875,336.85749609375,234.7743225546875C341.88849609375,232.4769735546875,347.96849609375,234.7844815546875,350.24649609375,239.9042435546875C351.75149609375,243.3109035546875,352.52449609375003,246.8661435546875,352.52449609375003,250.4710435546875C352.52349609375,281.0916435546875,301.50249609375,297.1149435546875,251.11649609375002,297.1143435546875Z" fill="#2B1A03" fill-opacity="1" style="mix-blend-mode:passthrough"/></g><g><path d="M251.11649609375002,357.9588984375C200.72919609375,357.9588984375,149.70849609375,341.9358984375,149.70849609375,311.3152984375C149.70849609375,308.1360984375,150.32269509375,304.9475984375,151.53078609375,301.8578084375C153.57091609375,296.6486684375,159.41380609375,294.0639034375,164.68209609375,296.1040384375C169.89129609375,298.1535684375,172.46589609375,304.0363284375,170.42569609375,309.2456984375C170.12869609375,309.9784984375,169.98949609375,310.6716984375,169.98949609375,311.3157984375C169.98949609375,321.8132984375,202.35289609375,337.6780984375,251.11549609374998,337.6780984375C299.87849609374996,337.6780984375,332.24249609375,321.8132984375,332.24249609375,311.3157984375C332.24249609375,310.5634984375,332.06449609375,309.8004984375,331.70749609375,309.0080984375C329.42949609375,303.8882984375,331.72749609375,297.8968784375,336.85749609375,295.6188314375C341.88849609375,293.3313984375,347.96849609375,295.6289824375,350.24649609375,300.7487484375C351.75149609375,304.1554084375,352.52449609375003,307.7105984375,352.52449609375003,311.3155984375C352.52349609375,341.9363984375,301.50249609375,357.9593984375,251.11649609375002,357.9588984375Z" fill="#2B1A03" fill-opacity="1" style="mix-blend-mode:passthrough"/></g></g></g></svg>