<svg xmlns="http://www.w3.org/2000/svg" xmlns:xlink="http://www.w3.org/1999/xlink" fill="none" version="1.1" width="50" height="50" viewBox="0 0 50 50"><defs><clipPath id="master_svg0_15_99"><rect x="0" y="0" width="50" height="50" rx="0"/></clipPath><linearGradient x1="0.5" y1="0" x2="0.5" y2="1" id="master_svg1_15_712"><stop offset="0%" stop-color="#F1BC15" stop-opacity="1"/><stop offset="100%" stop-color="#F4C419" stop-opacity="1"/></linearGradient></defs><g clip-path="url(#master_svg0_15_99)"><g><path d="M36.45623779296875,24.4781494140625C39.04507779296875,24.4781494140625,41.14373779296875,26.5768094140625,41.14373779296875,29.1656494140625C41.14373779296875,31.7544894140625,39.04507779296875,33.8531494140625,36.45623779296875,33.8531494140625C33.86739779296875,33.8531494140625,31.76873779296875,31.7544894140625,31.76873779296875,29.1656494140625C31.76873779296875,26.5768094140625,33.86739779296875,24.4781494140625,36.45623779296875,24.4781494140625ZM38.01873779296875,29.1656494140625C38.01873779296875,28.302709414062498,37.31917779296875,27.6031494140625,36.45623779296875,27.6031494140625C35.59329779296875,27.6031494140625,34.89373779296875,28.302709414062498,34.89373779296875,29.1656494140625C34.89373779296875,30.028589414062502,35.59329779296875,30.7281494140625,36.45623779296875,30.7281494140625C37.31917779296875,30.7281494140625,38.01873779296875,30.028589414062502,38.01873779296875,29.1656494140625Z" fill="url(#master_svg1_15_712)" fill-opacity="1"/></g><g><path d="M38.79678837890625,10.47812C38.99368837890625,11.21875,39.04688837890625,12.05312,39.05928837890625,13.13125C39.53118837890625,13.1625,39.97808837890625,13.20625,40.39998837890625,13.2625C42.27498837890625,13.51562,43.85308837890625,14.05625,45.10618837890625,15.3094C46.36248837890625,16.5625,46.89998837890625,18.1406,47.15308837890625,20.018700000000003C47.39678837890625,21.825,47.39678837890625,24.1187,47.39678837890625,26.9687L47.39678837890625,31.3656C47.39678837890625,34.2125,47.39678837890625,36.5094,47.15308837890625,38.3156C46.90308837890625,40.1906,46.36248837890625,41.7719,45.10618837890625,43.025C43.85618837890625,44.2781,42.27498837890625,44.8187,40.39998837890625,45.0687C38.59368837890625,45.3125,36.29678837890625,45.3125,33.44678837890625,45.3125L20.71868837890625,45.3125C16.89058837890625,45.3125,13.85618837890625,45.3125,11.48433837890625,44.9937C9.04058837890625,44.6656,7.06558837890625,43.9719,5.50621837890625,42.4156C3.94371837890625,40.8531,3.25621437890625,38.8781,2.92496437890625,36.4344C2.60308837890625,34.0625,2.60308837890625,31.0312,2.60308837890625,27.2L2.60308837890625,22.8C2.60308837890625,18.971899999999998,2.60308837890625,15.9375,2.92183837890625,13.56563C3.24996337890625,11.121870000000001,3.94371837890625,9.14375,5.50308837890625,7.5875C7.06246837890625,6.025,9.037458378906251,5.3375,11.48121837890625,5.00625C13.85618837890625,4.6875,16.887488378906248,4.6875,20.71558837890625,4.6875L29.40618837890625,4.6875C31.11248837890625,4.6875,32.27498837890625,4.6875,33.27178837890625,4.953125C35.96828837890625,5.675429,38.07448837890625,7.78163,38.79678837890625,10.47812ZM29.16558837890625,7.8125L20.83428837890625,7.8125C16.85928837890625,7.8125,14.03748837890625,7.81562,11.89683837890625,8.10312C9.80308837890625,8.38437,8.59371837890625,8.91562,7.70933837890625,9.79687C6.83121837890625,10.67812,6.30308837890625,11.88437,6.02183837890625,13.98125C5.73120837890625,16.1219,5.72808837890625,18.9437,5.72808837890625,22.9187L5.72808837890625,27.0844C5.72808837890625,31.0531,5.7312183789062505,33.8781,6.01871837890625,36.0219C6.29996837890625,38.1156,6.83121837890625,39.3219,7.71246837890625,40.2031C8.59371837890625,41.0875,9.79996837890625,41.6156,11.89996837890625,41.8969C14.03748837890625,42.1844,16.85928837890625,42.1875,20.83428837890625,42.1875L33.33428837890625,42.1875C36.32498837890625,42.1875,38.40928837890625,42.1844,39.98118837890625,41.9719C41.51248837890625,41.7687,42.32178837890625,41.3906,42.89688837890625,40.8156C43.47498837890625,40.2375,43.84998837890625,39.4281,44.05308837890625,37.9C44.26868837890625,36.325,44.27178837890625,34.2406,44.27178837890625,31.25L44.27178837890625,27.0844C44.27178837890625,24.0937,44.26558837890625,22.0062,44.05308837890625,20.4344C43.84998837890625,18.903100000000002,43.47498837890625,18.096899999999998,42.89688837890625,17.518700000000003C42.32178837890625,16.9437,41.51248837890625,16.5656,39.98118837890625,16.3625C38.40928837890625,16.15,36.32498837890625,16.143700000000003,33.33428837890625,16.143700000000003L20.83428837890625,16.143700000000003C19.97138837890625,16.143700000000003,19.27178837890625,15.4442,19.27178837890625,14.58125C19.27178837890625,13.7183,19.97138837890625,13.01875,20.83428837890625,13.01875L33.44678837890625,13.01875C34.32808837890625,13.01875,35.15308837890625,13.01875,35.93118837890625,13.02812C35.91558837890625,12.11562,35.87808837890625,11.6625,35.77498837890625,11.2875C35.34128837890625,9.671199999999999,34.07878837890625,8.40871,32.46248837890625,7.975C31.91558837890625,7.825,31.20308837890625,7.8125,29.16558837890625,7.8125Z" fill="#76808F" fill-opacity="1"/></g></g></svg>